<?xml version="1.0" encoding="utf-8"?>
<!-- Generator: Adobe Illustrator 25.4.1, SVG Export Plug-In . SVG Version: 6.00 Build 0)  -->
<svg version="1.1" id="レイヤー_1" xmlns="http://www.w3.org/2000/svg" xmlns:xlink="http://www.w3.org/1999/xlink" x="0px"
	 y="0px" viewBox="0 0 191.3 89.3" style="enable-background:new 0 0 191.3 89.3;" xml:space="preserve">
<style type="text/css">
	.st0{fill:#FFFFFF;}
</style>
<g>
	<path class="st0" d="M189.9,31.2h-19.8l18.4-7.1V11.3c0-0.8-0.6-1.4-1.4-1.4h-48.2c-0.8,0-1.4,0.6-1.4,1.4v11.3
		c0,0.8,0.6,1.4,1.4,1.4h35.4l-18.4,7.1h-19.8c-0.8,0-1.4,0.6-1.4,1.4v11.3c0,0.8,0.6,1.4,1.4,1.4h19.8v9.9h-5.7
		c-0.8,0-1.4,0.6-1.4,1.4v8.5c0,0.8,0.6,1.4,1.4,1.4h5.7h12.8h1.4v-1.4v-9.9v-9.9h19.8c0.8,0,1.4-0.6,1.4-1.4V32.6
		C191.3,31.8,190.7,31.2,189.9,31.2z"/>
	<path class="st0" d="M126.1,9.9H72.3c-0.8,0-1.4,0.6-1.4,1.4v11.3c0,0.8,0.6,1.4,1.4,1.4h53.9c0.8,0,1.4-0.6,1.4-1.4V11.3
		C127.6,10.6,126.9,9.9,126.1,9.9z"/>
	<path class="st0" d="M126.1,31.2H72.3c-0.8,0-1.4,0.6-1.4,1.4v11.3c0,0.8,0.6,1.4,1.4,1.4h19.8v7.1l-4.9,12.2
		c-0.4,0.9,0.3,1.9,1.3,1.9h11.1c0.6,0,1.1-0.4,1.3-0.9l5.3-13.3v-7.1h19.8c0.8,0,1.4-0.6,1.4-1.4V32.6
		C127.6,31.8,126.9,31.2,126.1,31.2z"/>
	<path class="st0" d="M126.1,55.3h-5.7c-0.8,0-1.4,0.6-1.4,1.4v8.5c0,0.8,0.6,1.4,1.4,1.4h5.7c0.8,0,1.4-0.6,1.4-1.4v-8.5
		C127.6,55.9,126.9,55.3,126.1,55.3z"/>
	<path class="st0" d="M117.6,65.2v-8.5c0-0.8-0.6-1.4-1.4-1.4h-5.7c-0.8,0-1.4,0.6-1.4,1.4v8.5c0,0.8,0.6,1.4,1.4,1.4h5.7
		C117,66.6,117.6,66,117.6,65.2z"/>
	<path class="st0" d="M51,40.9H37l13.4-5.1v-8.9c0-0.8-0.6-1.4-1.4-1.4H14.8c-0.8,0-1.4,0.6-1.4,1.4v7.4c0,0.8,0.6,1.4,1.4,1.4h25.3
		l-13.4,5.1h-14c-0.8,0-1.4,0.6-1.4,1.4v7.4c0,0.8,0.6,1.4,1.4,1.4h14v4.1H23c-0.8,0-1.4,0.6-1.4,1.4v8.5c0,0.8,0.6,1.4,1.4,1.4
		h12.6c0.8,0,1.4-0.6,1.4-1.4v-9.9v-4.1h14c0.8,0,1.4-0.6,1.4-1.4v-7.4C52.4,41.6,51.8,40.9,51,40.9z"/>
	<path class="st0" d="M63.8,22.7v-2.8v-8.5c0-0.8-0.6-1.4-1.4-1.4h-8.5h-4.3L52,0.8C52.1,0.4,51.8,0,51.4,0h-9.5
		c-0.6,0-1.1,0.4-1.3,0.9l-2.3,9H11.3H1.4C0.6,9.9,0,10.6,0,11.3v8.5v2.8c0,0.8,0.6,1.4,1.4,1.4h8.5c0.8,0,1.4-0.6,1.4-1.4v-1.4
		h41.1v1.4c0,0.8,0.6,1.4,1.4,1.4h8.5C63.1,24.1,63.8,23.5,63.8,22.7z"/>
	<path class="st0" d="M25.4,8.1c0.1,0.3,0.3,0.4,0.5,0.4h7.3c0.4,0,0.6-0.3,0.5-0.7l-1.3-7.4C32.5,0.2,32.3,0,32,0h-7.3
		c-0.4,0-0.6,0.3-0.5,0.7L25.4,8.1z"/>
	<path class="st0" d="M12.6,8.1c0.1,0.3,0.3,0.4,0.6,0.4h7.3c0.4,0,0.6-0.3,0.5-0.7l-1.3-7.4C19.7,0.2,19.5,0,19.2,0h-7.3
		c-0.4,0-0.6,0.3-0.6,0.7L12.6,8.1z"/>
	<g>
		<polygon class="st0" points="26,86.9 23.3,80.8 22.4,80.8 22.4,89.3 23.3,89.3 23.3,82.7 25.8,88.1 26.3,88.1 28.8,82.6 
			28.8,89.3 29.7,89.3 29.7,80.8 28.8,80.8 		"/>
		<path class="st0" d="M43.5,80.8l-3.1,8.5h0.9l0.7-2.1h4l0.7,2.1h0.9l-3.1-8.5H43.5z M42.3,86.4l1.7-4.8l1.7,4.8H42.3z"/>
		<polygon class="st0" points="64.3,87.9 59.7,80.8 58.8,80.8 58.8,89.3 59.7,89.3 59.7,82.3 64.3,89.3 65.1,89.3 65.1,80.8 
			64.3,80.8 		"/>
		<path class="st0" d="M79.4,80.8l-3.1,8.5h0.9l0.7-2.1h4l0.7,2.1h0.9l-3.1-8.5H79.4z M78.2,86.4l1.7-4.8l1.7,4.8H78.2z"/>
		<path class="st0" d="M99.4,81.1c-0.5-0.2-1.1-0.3-1.8-0.3h-1.9h0h-0.8v8.5h0.8h0h1.9c0.7,0,1.3-0.1,1.8-0.3s0.8-0.6,1.1-1
			c0.2-0.5,0.4-1,0.4-1.7v-2.4c0-0.7-0.1-1.2-0.4-1.7C100.3,81.7,99.9,81.3,99.4,81.1z M100,86.3c0,0.7-0.2,1.3-0.6,1.7
			s-1,0.6-1.8,0.6h-1.9v-6.9h1.9c0.8,0,1.4,0.2,1.8,0.6s0.6,0.9,0.6,1.7V86.3z"/>
		<polygon class="st0" points="113.7,80.8 113.1,80.8 113.1,89.3 113.7,89.3 114,89.3 118.6,89.3 118.6,88.5 114,88.5 114,85.5 
			118,85.5 118,84.7 114,84.7 114,81.6 118.6,81.6 118.6,80.8 114,80.8 		"/>
		<path class="st0" d="M135.7,85c-0.4-0.1-0.8-0.3-1.3-0.4c0,0,0,0-0.1,0s0,0-0.1,0c0,0,0,0-0.1,0c0,0,0,0,0,0
			c-0.5-0.1-0.9-0.2-1.2-0.3c-0.3-0.1-0.5-0.2-0.7-0.4s-0.3-0.4-0.3-0.7v0c0-0.5,0.2-0.9,0.6-1.2c0.4-0.3,0.9-0.4,1.6-0.4
			c0.3,0,0.7,0.1,1,0.2c0.4,0.1,0.7,0.3,1.1,0.6l0.5-0.6c-0.3-0.2-0.6-0.4-0.9-0.5s-0.6-0.2-0.9-0.3c-0.3-0.1-0.6-0.1-0.9-0.1
			c-0.6,0-1.2,0.1-1.6,0.3c-0.5,0.2-0.8,0.5-1,0.8c-0.2,0.4-0.4,0.8-0.4,1.3v0c0,0.5,0.1,0.9,0.4,1.2c0.3,0.3,0.6,0.5,0.9,0.6
			c0.4,0.1,0.8,0.2,1.4,0.3l0.2,0c0,0,0,0,0,0s0,0,0,0c0.4,0.1,0.8,0.2,1.1,0.3c0.3,0.1,0.5,0.2,0.7,0.4s0.3,0.4,0.3,0.8v0
			c0,0.5-0.2,0.9-0.6,1.2c-0.4,0.3-1,0.4-1.7,0.4c-0.5,0-1-0.1-1.4-0.2c-0.4-0.2-0.8-0.4-1.2-0.7l-0.5,0.7c0.3,0.2,0.6,0.4,0.9,0.6
			s0.7,0.3,1,0.3s0.8,0.1,1.2,0.1c0.7,0,1.2-0.1,1.7-0.3c0.5-0.2,0.8-0.5,1.1-0.8s0.4-0.8,0.4-1.3v0c0-0.5-0.1-0.9-0.4-1.2
			S136.1,85.2,135.7,85z"/>
		<polygon class="st0" points="154,84.7 149.6,84.7 149.6,80.8 148.8,80.8 148.8,89.3 149.6,89.3 149.6,85.5 154,85.5 154,89.3 
			154.8,89.3 154.8,80.8 154,80.8 		"/>
		<rect x="169.5" y="80.8" class="st0" width="0.6" height="8.5"/>
	</g>
</g>
</svg>
